<svg id="Calque_1" data-name="Calque 1" xmlns="http://www.w3.org/2000/svg" viewBox="0 0 295.79 51.98"><defs><style>.cls-1{fill:#001c2c;}.cls-2{fill:#00a1a4;}.cls-3{fill:#fff;}</style></defs><title>hunteed-logo</title><path class="cls-1" d="M537.84,683.06a1.38,1.38,0,0,0-1.36,1.36v12.64h-14.8V684.41a1.38,1.38,0,0,0-2.77,0v28a1.38,1.38,0,0,0,2.77,0V699.77h14.8v12.64a1.38,1.38,0,0,0,2.77,0v-28A1.38,1.38,0,0,0,537.84,683.06Z" transform="translate(-447.44 -672.15)"/><path class="cls-1" d="M577.26,683.06a1.38,1.38,0,0,0-1.36,1.36v16.88a9.72,9.72,0,0,1-19.44,0V684.41a1.38,1.38,0,0,0-2.76,0v16.88a12.48,12.48,0,0,0,25,0V684.41A1.38,1.38,0,0,0,577.26,683.06Z" transform="translate(-447.44 -672.15)"/><path class="cls-1" d="M613.81,683.36a1.38,1.38,0,0,0-1.36,1.36v23.45l-17.6-24.4a1.41,1.41,0,0,0-1.94-.34,1.36,1.36,0,0,0-.51,1.47v27.52a1.36,1.36,0,0,0,2.72,0V688.83L612.53,713a0.6,0.6,0,0,0,.21.23,1.33,1.33,0,0,0,1.07.51,1.38,1.38,0,0,0,1.4-1.36v-27.7A1.38,1.38,0,0,0,613.81,683.36Z" transform="translate(-447.44 -672.15)"/><path class="cls-1" d="M648.47,683.06H628.28a1.38,1.38,0,0,0,0,2.76H637v26.59a1.36,1.36,0,0,0,2.72,0V685.82h8.73A1.38,1.38,0,0,0,648.47,683.06Z" transform="translate(-447.44 -672.15)"/><path class="cls-1" d="M678.19,685.82a1.38,1.38,0,0,0,0-2.76H662.72a1.38,1.38,0,0,0-1.36,1.36v28a1.36,1.36,0,0,0,1.27,1.36h15.55a1.38,1.38,0,0,0,0-2.76H664.13V699.82h12.25a1.38,1.38,0,0,0,0-2.76H664.13V685.82h14.06Z" transform="translate(-447.44 -672.15)"/><path class="cls-1" d="M707.95,685.82a1.38,1.38,0,0,0,0-2.76H692.49a1.38,1.38,0,0,0-1.36,1.36v28a1.36,1.36,0,0,0,1.28,1.36h15.55a1.38,1.38,0,0,0,0-2.76H693.89V699.82h12.25a1.38,1.38,0,0,0,0-2.76H693.89V685.82h14.06Z" transform="translate(-447.44 -672.15)"/><path class="cls-1" d="M727.87,683.06h-5.63a1.38,1.38,0,0,0-1.36,1.36v28a1.36,1.36,0,0,0,1.27,1.36h5.71A15.36,15.36,0,1,0,727.87,683.06Zm0,28h-4.22V685.82h4.22A12.59,12.59,0,1,1,727.87,711Z" transform="translate(-447.44 -672.15)"/><rect class="cls-2" width="52.78" height="51.98" rx="5.9" ry="5.9"/><path class="cls-3" d="M490.54,700.68H477.82a1.19,1.19,0,0,0,0,2.39h11.53v11.52a1.19,1.19,0,0,0,2.39,0V701.88A1.2,1.2,0,0,0,490.54,700.68Z" transform="translate(-447.44 -672.15)"/><path class="cls-3" d="M470.53,700.68H457.81a1.2,1.2,0,0,0-1.19,1.19v12.72a1.19,1.19,0,0,0,2.39,0V703.07h11.53A1.19,1.19,0,0,0,470.53,700.68Z" transform="translate(-447.44 -672.15)"/><path class="cls-3" d="M457.71,695.6h12.72a1.19,1.19,0,1,0,0-2.39H458.9V681.68a1.19,1.19,0,0,0-2.39,0V694.4A1.2,1.2,0,0,0,457.71,695.6Z" transform="translate(-447.44 -672.15)"/><path class="cls-3" d="M477.72,695.6h12.72a1.2,1.2,0,0,0,1.19-1.19V681.69a1.19,1.19,0,0,0-2.39,0v11.53H477.72A1.19,1.19,0,1,0,477.72,695.6Z" transform="translate(-447.44 -672.15)"/></svg>